# xmcd
#
# Track frame offsets:
#	150
#	18203
#	33021
#	45821
#	63086
#	79193
#	99398
#	117410
#	133740
#	150690
#	178432
#	206444
#	222454
#	241517
#	260479
#	285129
#	303261
#	321066
#	341466
#
# Disc length: 4799 seconds
# Revision: 0
# Processed by: cddbd v1.5.2PL0 Copyright (c) Steve Scherf et al.
# Submitted via: dBpowerAMP V12.0
#
DISCID=f412bd13
DTITLE=Various Artist - Eurodance forever 11
DYEAR=1998
DGENRE=Eurodance
TTITLE0=Imperio - Return to Paradise (Video Mix)
TTITLE1=Ace of Base - All that she wants
TTITLE2=Bellini - Samba de Janeiro (Radio Edit)
TTITLE3=Red 5 - Da Beat goes...
TTITLE4=Nomansland - Fantasy
TTITLE5=Haddaway - What is Love
TTITLE6=Twenty 4 Seven - Is it Love
TTITLE7=Future Breeze - Keep the Fire burnin'
TTITLE8=Masterboy - Just for you
TTITLE9=Robert Miles - Landscape
TTITLE10=Twenty 4 Seven - Slave to the Music (Ultimate Dance Extended Mix)
TTITLE11=T-Spoon - Smiling ( Radio Mix )
TTITLE12=Pharao - Temple of Love (Love Spirit Mix)
TTITLE13=Mark Oh - The Right Way
TTITLE14=Tic Tac Toe - Mr. Wichtig (Collins Avenue Mix)
TTITLE15=Marcel Romanoff - Show me the Way to your Heart
TTITLE16=Rednex - Wish you were here (Radio Edit)
TTITLE17=Toni Braxton - Unbreak my Heart (Album Version)
TTITLE18=Luniz - I got 5 on it
EXTD=
EXTT0=
EXTT1=
EXTT2=
EXTT3=
EXTT4=
EXTT5=
EXTT6=
EXTT7=
EXTT8=
EXTT9=
EXTT10=
EXTT11=
EXTT12=
EXTT13=
EXTT14=
EXTT15=
EXTT16=
EXTT17=
EXTT18=
PLAYORDER=
